<svg xmlns="http://www.w3.org/2000/svg" width="64" height="64" fill="none">
  <path fill="currentColor" d="M37.65 40H56a8 8 0 0 0 8-8 32 32 0 1 0-32 32h2.34a9.66 9.66 0 0 0 6.83-16.48l-4.69-4.69A1.66 1.66 0 0 1 37.65 40Zm-6.83 8.48 4.69 4.69A1.66 1.66 0 0 1 34.34 56H32a24 24 0 1 1 0-48 23.73 23.73 0 0 1 16 6.12A24 24 0 0 1 56 32H37.65a9.66 9.66 0 0 0-6.83 16.48Z"/>
  <path fill="currentColor" d="M40 24a4 4 0 1 0 0-8 4 4 0 0 0 0 8ZM24 24a4 4 0 1 0 0-8 4 4 0 0 0 0 8ZM20 40a4 4 0 1 0 0-8 4 4 0 0 0 0 8Z"/>
</svg>
