<?xml version="1.0" encoding="UTF-8"?>
<svg width="1200pt" height="1200pt" version="1.1" viewBox="0 0 1200 1200" xmlns="http://www.w3.org/2000/svg">
 <g color="#909090">
  <path fill="currentColor" d="m28.117 649.2c-16.859-11.254-28.117-33.73-28.117-53.422 0-19.68 8.4375-37.945 29.52-47.785h-1.4023c99.805-59.039 238.98-137.76 331.77-192.59v130.74c-36.551 21.086-85.754 44.988-209.46 111.06l1.4023 1.3906c66.07 29.531 141.98 74.508 208.05 113.87v132.14z"/>
  <path fill="currentColor" d="m1171.9 550.8c16.848 11.258 28.117 33.742 28.117 53.426 0 19.68-8.4375 37.945-29.531 47.785h1.4141c-99.805 59.039-238.99 137.76-331.77 192.59l0.003906-130.75c36.551-21.07 85.754-44.977 209.46-111.05l-1.4023-1.3906c-66.059-29.531-141.98-74.508-208.05-113.87l-0.003906-132.15z"/>
  <path fill="currentColor" d="m556.81 862.13h-84.133l169.08-524.26h85.559z"/>
 </g>
</svg>
